<svg xmlns="http://www.w3.org/2000/svg" width="27" height="27" viewBox="0 0 27 27">
  <g id="Group_1" data-name="Group 1" transform="translate(-3779 -417)">
    <rect id="Rectangle_6" data-name="Rectangle 6" width="27" height="27" transform="translate(3779 417)" fill="none"/>
    <g id="_970a95fe6ee1f5d2e542157a4f15dc06" data-name="970a95fe6ee1f5d2e542157a4f15dc06" transform="translate(3782.302 424.268)">
      <path id="Path_2" data-name="Path 2" d="M18.735,19.711H2.18a1.874,1.874,0,0,1-1.4-.644A2.146,2.146,0,0,1,.27,17.4C.979,11.882,5.355,7.72,10.451,7.72s9.46,4.139,10.182,9.685a2.146,2.146,0,0,1-.5,1.679,1.874,1.874,0,0,1-1.4.627ZM10.457,9.18c-4.358,0-8.1,3.613-8.715,8.4a.662.662,0,0,0,.148.514.378.378,0,0,0,.284.142H18.729a.378.378,0,0,0,.284-.142.662.662,0,0,0,.148-.514C18.552,12.811,14.809,9.2,10.451,9.2Z" transform="translate(-0.255 -7.246)"/>
      <path id="Path_3" data-name="Path 3" d="M18.08,10.36a.692.692,0,0,1-.355-.095.733.733,0,0,1-.3-1l1.047-1.933a.741.741,0,1,1,1.3.71L18.73,9.97a.745.745,0,0,1-.65.39Zm-11.648,0a.745.745,0,0,1-.65-.39L4.735,8.043a.739.739,0,1,1,1.295-.71L7.076,9.267a.739.739,0,0,1-.3,1,.71.71,0,0,1-.349.095Zm1.839,4.706a1.112,1.112,0,0,0,0-2.217,1.112,1.112,0,0,0,0,2.217Zm7.84.047a1.112,1.112,0,0,0,0-2.217,1.112,1.112,0,0,0,0,2.217Z" transform="translate(-2.042 -6.918)"/>
    </g>
  </g>
</svg>