<svg xmlns="http://www.w3.org/2000/svg" width="27" height="27" viewBox="0 0 27 27">
  <g id="Group_1" data-name="Group 1" transform="translate(-3779 -417)">
    <rect id="Rectangle_6" data-name="Rectangle 6" width="27" height="27" transform="translate(3779 417)" fill="none"/>
    <path id="_2ac1beec93fd2ad179201b90d0af2c95" data-name="2ac1beec93fd2ad179201b90d0af2c95" d="M14.7,1.518A3.134,3.134,0,0,0,11.878,2.9,4.926,4.926,0,0,0,11,5.793,3.2,3.2,0,0,0,13.62,4.683,4.387,4.387,0,0,0,14.7,1.518Zm-.638,5.623a6.417,6.417,0,0,0-1.943.375,5.957,5.957,0,0,1-1.628.372,8.068,8.068,0,0,1-1.565-.342A7.97,7.97,0,0,0,6.918,7.2,3.879,3.879,0,0,0,3.724,8.816a6.622,6.622,0,0,0-1.285,4.189A11.427,11.427,0,0,0,4.1,18.624c1.129,1.923,2.257,2.884,3.417,2.884a4.324,4.324,0,0,0,1.5-.372,4.365,4.365,0,0,1,1.6-.373,4.654,4.654,0,0,1,1.693.373,5.167,5.167,0,0,0,1.565.372c.972,0,1.941-.745,2.914-2.2a10.5,10.5,0,0,0,1.378-2.792,3.708,3.708,0,0,1-1.723-1.4,4.223,4.223,0,0,1-.064-4.808,8.091,8.091,0,0,1,1.285-1.335,6.489,6.489,0,0,0-1.189-1.115,4.078,4.078,0,0,0-2.413-.715Z" transform="translate(3781.698 418.987)" fill="none" stroke="#000" stroke-linecap="round" stroke-width="1.11"/>
  </g>
</svg>