<svg id="eb13872aa15022e6bc22f03be1df2822" xmlns="http://www.w3.org/2000/svg" width="20" height="20" viewBox="0 0 20 20">
  <path id="Path_6" data-name="Path 6" d="M0,0H20V20H0Z" fill="none"/>
  <path id="Path_7" data-name="Path 7" d="M10.388,2a8.388,8.388,0,1,0,8.388,8.388A8.391,8.391,0,0,0,10.388,2ZM3.678,10.388a6.709,6.709,0,0,1,6.711-6.711A6.629,6.629,0,0,1,14.5,5.1L5.1,14.5A6.629,6.629,0,0,1,3.678,10.388ZM10.388,17.1a6.629,6.629,0,0,1-4.11-1.418l9.4-9.4a6.629,6.629,0,0,1,1.418,4.11A6.709,6.709,0,0,1,10.388,17.1Z" transform="translate(-0.388 -0.388)" fill="#00ba81"/>
</svg>
