<svg id="Layer_1" enable-background="new 0 0 511.315 511.315" viewBox="0 0 511.315 511.315" xmlns="http://www.w3.org/2000/svg"><g><g><path d="m466.167 217.714 2.678-24.561c-19.095-11.045-21.117-12.215-40.211-23.26l-20.069 14.651h-30.129l-20.069-14.651c-19.095 11.045-21.117 12.215-40.212 23.26l2.678 24.561c-5.543 9.593-9.478 16.402-15.021 25.995l-22.628 9.949v46.469l22.628 9.949c5.543 9.593 9.478 16.402 15.021 25.995l-2.678 24.561c19.095 11.045 21.117 12.215 40.211 23.26l20.163-14.719h29.941l20.163 14.719c19.095-11.045 21.117-12.215 40.212-23.26l-2.678-24.561c5.543-9.593 9.478-16.402 15.021-25.995l22.628-9.949v-46.469l-22.628-9.949c-5.543-9.593-9.478-16.402-15.021-25.995z" fill="#8ca3b7"/><g><path d="m262.999 356.18 2.34-21.462c-16.686-9.652-18.452-10.673-35.138-20.325l-17.537 12.802h-26.327l-17.537-12.802c-16.686 9.652-18.452 10.674-35.138 20.325l2.34 21.462c-4.844 8.383-8.282 14.333-13.126 22.715l-19.773 8.694v40.606l19.773 8.694c4.844 8.383 8.282 14.333 13.126 22.715l-2.34 21.462c16.686 9.652 18.452 10.673 35.138 20.325l17.619-12.862h26.164l17.619 12.862c16.686-9.652 18.452-10.674 35.138-20.325l-2.34-21.462c4.844-8.383 8.282-14.333 13.126-22.715l19.773-8.694v-40.605l-19.773-8.694c-4.845-8.383-8.283-14.333-13.127-22.716z" fill="#ff9d87"/></g><path d="m239.721 71.79 3.399-31.17c-24.233-14.017-26.799-15.501-51.032-29.518l-25.47 18.593h-38.236l-25.47-18.593c-24.233 14.016-26.799 15.5-51.032 29.518l3.399 31.17c-7.035 12.175-12.028 20.816-19.063 32.99l-28.716 12.626v58.973l28.717 12.627c7.035 12.175 12.028 20.816 19.063 32.99l-3.399 31.17c24.233 14.017 26.799 15.501 51.032 29.518l25.588-18.68h37.998l25.589 18.68c24.233-14.017 26.799-15.501 51.032-29.519l-3.399-31.17c7.035-12.175 12.028-20.816 19.063-32.99l28.716-12.625v-58.973l-28.716-12.627c-7.035-12.175-12.029-20.816-19.063-32.99z" fill="#fff"/><g><rect height="0" transform="matrix(.707 -.707 .707 .707 -60.667 147.322)" width="0" x="147.5" y="146.893"/><path d=""/></g><circle cx="147.5" cy="146.893" fill="#a7eed4" r="62.577"/><g><rect height="0" transform="matrix(.707 -.707 .707 .707 -80.539 359.347)" width="0" x="393.5" y="276.893"/><path d=""/></g><circle cx="393.5" cy="276.893" fill="#a7eed4" r="49.309"/><path d="m128.501 264.005-50.002-24.323 2.52-23.108-27.25-47.159-21.27-9.353v-26.338l21.269-9.353 27.25-47.159-2.52-23.108 49.883-24.41-25.47-18.593c-24.232 14.017-26.798 15.501-51.031 29.519l3.399 31.17c-7.035 12.175-12.028 20.816-19.063 32.99l-28.716 12.626v58.974l28.717 12.627c7.035 12.175 12.028 20.815 19.063 32.99l-3.399 31.17c24.233 14.017 26.799 15.501 51.032 29.519z" fill="#e3edf6"/><path d="m378.529 369.174-33.756-22.025 1.799-16.5-23.208-40.163-15.18-6.675v-13.835l15.18-6.675 23.208-40.163-1.799-16.501 33.662-22.093-20.069-14.651c-19.095 11.045-21.117 12.215-40.212 23.26l2.678 24.561c-5.543 9.593-9.478 16.402-15.021 25.995l-22.628 9.949v46.469l22.628 9.949c5.543 9.593 9.478 16.402 15.021 25.995l-2.678 24.561c19.095 11.045 21.117 12.215 40.211 23.26z" fill="#5c7c95"/><path d="m109.923 146.893c0-30.279 21.507-55.533 50.077-61.326-4.039-.819-8.219-1.251-12.5-1.251-34.56 0-62.577 28.017-62.577 62.577s28.017 62.577 62.577 62.577c4.281 0 8.461-.433 12.5-1.251-28.57-5.793-50.077-31.047-50.077-61.326z" fill="#71e4bf"/><path d="m369.191 276.893c0-22.913 15.63-42.172 36.809-47.706-3.992-1.043-8.181-1.603-12.5-1.603-27.232 0-49.309 22.076-49.309 49.309s22.076 49.309 49.309 49.309c4.319 0 8.508-.559 12.5-1.603-21.179-5.534-36.809-24.793-36.809-47.706z" fill="#71e4bf"/><path d="m186.418 488.531-26.138-16.946 1.461-17.402-21.313-36.884-12.326-5.42v-7.971l12.326-5.42 21.313-36.884-1.462-17.402 26.057-17.006-17.537-12.802c-16.686 9.652-18.452 10.674-35.138 20.325l2.34 21.462c-4.844 8.383-8.282 14.333-13.126 22.715l-19.773 8.694v40.606l19.773 8.694c4.844 8.383 8.282 14.333 13.126 22.715l-2.34 21.462c16.686 9.652 18.452 10.674 35.138 20.325z" fill="#ff6a47"/></g><g><path d="m369.789 141.438c45.068-7.963 91.818 7.275 123.279 40.724l10.864-10.342c-29.982-31.559-71.044-48.521-114.436-47.374l21.17-20.115-10.332-10.875-54.985 52.245z"/><path d="m409.5 414.393c-11.227 0-22.393-1.362-33.189-4.049l-3.622 14.557c41.865 10.609 87.979 2.156 123.312-22.479v34.471h15v-65.938c-29.025 27.101-61.169 43.395-101.501 43.438z"/><path d="m83.883 367.38 6.979-19.855-57.27 34.967 7.816 12.803 23.206-14.169c-8.55 42.374 3.991 87.551 33.346 119.394l11.078-10.113c-30.205-32.545-40.113-81.315-25.155-123.027z"/><path d="m319.182 475.59c12.743-22.27 18.879-47.991 17.673-74.039l-14.984.684c1.356 29.394-7.691 57.884-25.873 81.034 0 0-13.74 17.55-13.74 17.55l67.151-17.673-3.817-14.506z"/><path d="m314.542 134.445 1.586 21.504 40.579-59.847-12.415-8.418-17.392 25.651c-8.332-44.512-33.122-84.69-69.891-112.353l-9.018 11.986c38.75 29.154 63.007 73.43 66.551 121.477z"/><path d="m101.213 309.979c-43.186-10.046-73.513-33.981-101.018-68.07v68.984h15v-30.465c23.239 21.713 51.463 36.849 82.592 44.154z"/><path d="m183.586 129.697-10.607-10.608-37.696 37.698-15.262-15.263-10.607 10.607 25.869 25.869z"/><path d="m147.5 216.97c38.641 0 70.077-31.437 70.077-70.077-3.849-92.967-136.319-92.94-140.154.001 0 38.64 31.436 70.076 70.077 70.076zm0-125.154c30.37 0 55.077 24.707 55.077 55.077-3.025 73.067-107.14 73.046-110.154 0 0-30.37 24.707-55.077 55.077-55.077z"/><path d="m47.558 223.622-3.664 33.585 59.49 34.416 27.562-20.119h33.107l27.562 20.119c8.079-4.676 18.022-10.428 23.305-13.49l-7.521-12.979c-4.081 2.364-8.701 5.039-14.836 8.59l-23.618-17.24h-42.893l-23.618 17.24-42.57-24.626 3.136-28.754c-7.717-13.339-13.811-23.888-21.515-37.238l-26.485-11.639v-49.188l26.487-11.639c7.704-13.35 13.798-23.899 21.515-37.238l-3.136-28.754 15.179-8.782-7.509-12.986-23.642 13.68 3.664 33.585c-6.006 10.385-10.606 18.349-16.604 28.74l-30.954 13.601v68.773l30.953 13.602c5.998 10.392 10.599 18.356 16.605 28.741z"/><path d="m97.623 22.829 4.814-2.786 23.497 17.15h43.132l23.499-17.15 42.57 24.626-3.136 28.754c7.717 13.339 13.811 23.888 21.515 37.238l26.486 11.638v49.188l-26.487 11.639c-7.704 13.35-13.798 23.899-21.515 37.238l3.136 28.755-14.747 8.53 7.505 12.988 23.213-13.43-3.664-33.586c6.006-10.385 10.606-18.349 16.604-28.74l30.955-13.601v-68.773l-30.953-13.602c-5.998-10.392-10.599-18.355-16.604-28.74l3.664-33.585-59.49-34.416-27.441 20.029h-33.349l-27.442-20.028c-5.829 3.371-17.489 10.125-22.854 13.223l7.498 12.992c2.824-1.63 5.917-3.422 9.594-5.551z"/><path d="m384.364 281.499-10.001-10.001-10.606 10.605 20.607 20.608 37.303-37.302-10.606-10.608z"/><path d="m393.5 220.084c-31.324 0-56.809 25.484-56.809 56.809 3.121 75.364 110.508 75.342 113.617 0 .001-31.324-25.484-56.809-56.808-56.809zm0 98.618c-23.053 0-41.809-18.755-41.809-41.809 2.296-55.465 81.329-55.449 83.617 0 .001 23.054-18.755 41.809-41.808 41.809z"/><path d="m486.454 237.832-12.565-21.745 2.942-26.979-48.672-28.154-22.041 16.091h-25.236l-22.041-16.091-48.672 28.154 2.942 26.979-12.565 21.744-24.862 10.932v56.26l24.862 10.933 12.565 21.744-2.942 26.979 48.672 28.154 22.134-16.159h25.049l22.134 16.159 48.672-28.154-2.942-26.979 12.565-21.744 24.862-10.932v-56.26zm9.861 57.4-20.393 8.967-17.477 30.246 2.415 22.144-31.751 18.365-18.192-13.28h-34.834l-18.192 13.28-31.751-18.365 2.415-22.143-17.477-30.246-20.393-8.968v-36.678l20.393-8.967 17.477-30.246-2.415-22.144 31.751-18.365 18.098 13.212h35.021l18.098-13.212 31.751 18.365-2.415 22.143 17.477 30.247 20.393 8.967v36.678z"/><path d="m303.397 433.091v-50.396l-22.007-9.677-10.67-18.465 2.604-23.88-43.598-25.22-19.509 14.242h-21.435l-19.509-14.242-43.599 25.22 2.604 23.88-10.669 18.465-22.007 9.677v50.396l22.007 9.677 10.67 18.465-2.604 23.88 43.598 25.22 19.59-14.302h21.271l19.59 14.302 43.599-25.22-2.604-23.88 10.669-18.465zm-48.121 24.888 2.077 19.044-26.677 15.431-15.648-11.423h-31.057l-15.648 11.423-26.677-15.431 2.077-19.044-15.582-26.967-17.539-7.712v-30.814l17.539-7.712 15.583-26.967-2.077-19.044 26.677-15.431 15.566 11.363h31.22l15.566-11.363 26.677 15.431-2.077 19.044 15.582 26.967 17.539 7.712v30.814l-17.539 7.712z"/></g><g fill="#fff"><path d="m177 400.393h15v15h-15z"/><path d="m207 400.393h15v15h-15z"/></g></g><g/><g/><g/><g/><g/><g/><g/><g/><g/><g/><g/><g/><g/><g/><g/></svg>