<svg id="Layer_1" enable-background="new 0 0 512 512" height="512" viewBox="0 0 512 512" width="512" xmlns="http://www.w3.org/2000/svg"><path d="m256 193.8c-34.297 0-62.2 27.903-62.2 62.2s27.903 62.2 62.2 62.2 62.2-27.903 62.2-62.2-27.903-62.2-62.2-62.2zm0 108.4c-25.475 0-46.2-20.726-46.2-46.2s20.726-46.2 46.2-46.2 46.2 20.726 46.2 46.2-20.725 46.2-46.2 46.2zm-203-178.404c-8.223 0-14.913 6.689-14.913 14.912s6.69 14.913 14.913 14.913 14.913-6.69 14.913-14.913-6.69-14.912-14.913-14.912zm0 16c-.609 0-1.087-.478-1.087-1.088 0-.609.478-1.087 1.087-1.087s1.087.478 1.087 1.087c0 .61-.478 1.088-1.087 1.088zm439.596-139.796h-95.991c-10.7 0-19.405 8.705-19.405 19.404v137.751c0 10.699 8.705 19.404 19.405 19.404h51.977v51.064h-62.439c-1.177-1.07-2.677-1.801-4.357-2.017l-29.666-3.796c-1.162-3.269-2.49-6.476-3.977-9.603l18.292-23.661c2.462-3.185 2.175-7.703-.672-10.55l-31.76-31.76c-2.849-2.847-7.366-3.134-10.55-.672l-23.661 18.292c-3.127-1.486-6.335-2.814-9.603-3.977l-3.796-29.665c-.512-3.993-3.91-6.984-7.936-6.984h-44.914c-4.025 0-7.424 2.991-7.936 6.984l-3.796 29.665c-3.268 1.162-6.476 2.49-9.603 3.977l-23.661-18.292c-3.184-2.462-7.703-2.175-10.55.672l-31.76 31.76c-2.847 2.847-3.134 7.365-.672 10.55l18.292 23.661c-1.486 3.127-2.815 6.335-3.977 9.603l-29.666 3.796c-1.681.215-3.18.947-4.357 2.017h-62.438v-51.063h25.941c9.175 0 16.64-7.465 16.64-16.64v-143.28c0-9.175-7.465-16.64-16.64-16.64h-72.72c-9.175 0-16.64 7.465-16.64 16.64v143.28c0 9.175 7.465 16.64 16.64 16.64h30.779v59.064c0 4.418 3.582 8 8 8h67.813v24.752h-67.813c-4.418 0-8 3.582-8 8v97.768h-39.419c-4.418 0-8 3.582-8 8v86.692c0 4.418 3.582 8 8 8h50.068v4.532l-13.478 17.803c-1.833 2.421-2.138 5.672-.785 8.391 1.352 2.719 4.126 4.438 7.163 4.438h57.169c3.037 0 5.812-1.72 7.163-4.438 1.353-2.719 1.048-5.97-.785-8.391l-13.479-17.803v-4.532h50.069c4.418 0 8-3.582 8-8v-86.692c0-4.418-3.582-8-8-8h-87.686v-89.768h62.438c1.177 1.07 2.677 1.802 4.358 2.018l29.666 3.796c1.162 3.267 2.49 6.475 3.978 9.602l-18.293 23.66c-2.462 3.186-2.175 7.704.672 10.551l31.76 31.76c2.849 2.847 7.366 3.135 10.55.672l23.661-18.292c3.127 1.486 6.335 2.814 9.603 3.977l3.796 29.665c.512 3.993 3.91 6.984 7.936 6.984h44.914c4.025 0 7.424-2.991 7.936-6.984l3.796-29.665c3.268-1.162 6.476-2.49 9.603-3.977l23.661 18.292c3.184 2.463 7.703 2.175 10.55-.672l31.76-31.76c2.847-2.847 3.134-7.365.672-10.551l-18.293-23.66c1.487-3.127 2.815-6.335 3.978-9.602l29.666-3.796c1.682-.215 3.181-.947 4.358-2.018h62.438v89.768h-80.243c-6.729 0-12.205 5.475-12.205 12.204v71.059c-.168.322-.327.651-.468.991l-15.172 36.739c-1.584 3.836-1.208 7.955 1.03 11.301 2.295 3.431 6.223 5.563 10.251 5.563h147.978c4.028 0 7.956-2.132 10.251-5.563 2.238-3.346 2.614-7.465 1.03-11.301l-15.172-36.739c-.001-.001-.001-.002-.001-.002-.141-.34-.299-.668-.467-.99v-71.058c0-6.729-5.476-12.204-12.205-12.204h-18.609v-97.768c0-4.418-3.582-8-8-8h-67.813v-24.752h67.813c4.418 0 8-3.582 8-8v-59.064h28.015c10.699 0 19.404-8.705 19.404-19.404v-137.752c0-10.699-8.705-19.404-19.404-19.404zm-476.596 159.92v-143.28c0-.335.305-.64.64-.64h72.72c.335 0 .64.305.64.64v143.28c0 .335-.305.64-.64.64h-72.72c-.335 0-.64-.305-.64-.64zm70.658 328.964 5.388 7.116h-24.987l5.388-7.116c1.053-1.39 1.622-3.086 1.622-4.829v-7.219h10.968v7.219c-.001 1.743.568 3.439 1.621 4.829zm56.447-28.048h-127.105v-70.692h127.105zm214.344 35.164 12.037-29.148h112.558l12.037 29.148zm121.947-45.148h-107.261v-60.708h107.261zm-106.627-179.436-27.696 3.544c-3.139.402-5.746 2.616-6.65 5.649-1.682 5.638-3.948 11.11-6.739 16.267-1.507 2.784-1.229 6.196.707 8.701l17.079 22.09-21.802 21.802-22.091-17.079c-2.507-1.938-5.919-2.214-8.701-.706-5.155 2.79-10.628 5.057-16.266 6.738-3.032.904-5.247 3.511-5.649 6.65l-3.544 27.695h-30.832l-3.544-27.695c-.402-3.14-2.617-5.746-5.649-6.65-5.638-1.682-11.11-3.948-16.266-6.738-2.783-1.508-6.194-1.231-8.701.706l-22.091 17.079-21.802-21.802 17.079-22.09c1.937-2.505 2.214-5.917.707-8.701-2.791-5.156-5.058-10.629-6.739-16.267-.904-3.033-3.512-5.247-6.65-5.649l-27.696-3.544v-30.832l27.696-3.544c3.14-.402 5.746-2.617 6.65-5.649 1.682-5.638 3.948-11.11 6.738-16.266 1.508-2.784 1.23-6.195-.706-8.701l-17.079-22.091 21.802-21.802 22.091 17.079c2.507 1.937 5.918 2.214 8.701.706 5.155-2.79 10.628-5.057 16.266-6.738 3.032-.904 5.247-3.511 5.649-6.65l3.544-27.695h30.832l3.544 27.695c.402 3.14 2.617 5.746 5.649 6.65 5.638 1.682 11.11 3.948 16.266 6.738 2.782 1.508 6.194 1.23 8.701-.706l22.091-17.079 21.802 21.802-17.079 22.091c-1.937 2.506-2.214 5.917-.706 8.702 2.789 5.152 5.057 10.624 6.738 16.265.904 3.032 3.511 5.247 6.65 5.649l27.696 3.544zm123.231-114.261c0 1.846-1.559 3.404-3.404 3.404h-95.991c-1.846 0-3.405-1.559-3.405-3.404v-137.751c0-1.846 1.56-3.404 3.405-3.404h95.991c1.846 0 3.404 1.559 3.404 3.404zm-51.4-33.359c-8.223 0-14.913 6.689-14.913 14.912s6.69 14.913 14.913 14.913 14.913-6.69 14.913-14.913-6.691-14.912-14.913-14.912zm0 16c-.609 0-1.087-.478-1.087-1.088 0-.609.478-1.087 1.087-1.087s1.087.478 1.087 1.087c0 .61-.478 1.088-1.087 1.088z"/></svg>