<?xml version="1.0" encoding="iso-8859-1"?>
<!-- Generator: Adobe Illustrator 19.0.0, SVG Export Plug-In . SVG Version: 6.00 Build 0)  -->
<svg version="1.1" id="Capa_1" xmlns="http://www.w3.org/2000/svg" xmlns:xlink="http://www.w3.org/1999/xlink" x="0px" y="0px"
	 viewBox="0 0 496.485 496.485" style="enable-background:new 0 0 496.485 496.485;" xml:space="preserve">
<circle style="fill:#FFFFFF;" cx="265.309" cy="300.218" r="188.509"/>
<path style="fill:#193651;" d="M265.309,496.485c-52.752,0-101.624-20.17-138.861-57.406S69.042,352.97,69.042,300.218
	c0-107.83,87.661-196.267,196.267-196.267c52.751,0,101.624,20.17,138.861,57.406s57.406,86.109,57.406,138.861
	C461.576,408.824,373.139,496.485,265.309,496.485L265.309,496.485L265.309,496.485z M265.309,119.467
	c-99.297,0-180.752,80.679-180.752,180.751c0,48.097,18.618,93.867,52.752,128s79.127,52.752,128,52.752l0,0l0,0
	c99.297,0,180.751-80.679,180.751-180.751c0-48.097-18.618-93.867-52.751-128C358.4,138.085,313.406,119.467,265.309,119.467z"/>
<ellipse style="fill:#E1E6E9;" cx="264.985" cy="300.014" rx="159.037" ry="159.037"/>
<g>
	<path style="fill:#2EA2DB;" d="M280.824,327.37c0,0,4.655-7.758-21.721-8.533c0,0-6.206,3.879-7.758-15.515h-7.758
		c0,0-5.43-14.739-12.412-8.533c0,0-4.655,5.43-10.861-4.655c0,0-17.067-4.655-18.618,19.394c0,0-22.497,14.739,4.655,34.909
		l12.412,10.085l-0.776,24.048c0,0,6.206,0.776,3.103,10.861c0,0,8.533,7.758,1.552,23.273c0,0,8.533,24.048,24.048,16.291
		l-4.655-5.43l2.327-10.085h-7.758l5.43-10.861l-4.655-3.879c0,0,27.152-0.776,27.152-24.048c0,0-11.636-11.636,7.758-9.309
		c0,0,9.309,0,8.533-21.721c0,0,8.533-7.758,6.982-12.412C287.03,328.145,280.824,327.37,280.824,327.37z"/>
	<path style="fill:#2EA2DB;" d="M411.152,236.606c-14.739,1.552-10.085,20.945-10.085,20.945
		c-6.206,12.412-22.497-6.982-22.497-6.982c-6.206,13.964-21.721-0.776-21.721-0.776c-36.461-19.394-42.667,14.739-42.667,14.739
		c-18.618,17.842-0.776,42.667-0.776,42.667c10.861,15.515,27.152-4.655,27.152-4.655c10.861,13.188,17.842,10.085,17.842,10.085
		s0,0-1.552,7.758c-1.552,7.758,11.636,17.067,11.636,21.721c0,3.879-18.618,13.964-4.655,26.376
		c13.964,12.412,7.758,20.945,7.758,20.945s10.085,9.309,15.515,13.964c23.273-27.152,38.012-62.061,38.012-100.848
		C424.339,279.273,419.685,257.552,411.152,236.606z"/>
	<path style="fill:#2EA2DB;" d="M145.842,268.412c0,0,0,0,7.758,17.067c7.758,16.291,19.394-3.103,16.291-10.861
		c-3.103-8.533,3.879-20.945,23.273-16.291c19.394,4.655,10.861-3.103,27.927-24.048c17.067-20.945,27.152-3.879,31.806-17.067
		c5.43-12.412,9.309-36.461-10.085-21.721c-19.394,13.964-17.842,7.758,0-13.964s-11.636,3.879-41.891,2.327
		c-13.188-0.776-17.842-9.309-18.618-19.394c-15.515,9.309-29.479,21.721-41.115,35.685c-3.103,9.309-5.43,20.17-10.085,36.461
		C124.897,262.982,145.842,268.412,145.842,268.412z"/>
</g>
<path style="fill:#FFFFFF;" d="M313.406,95.418c0,48.097,87.661,146.618,87.661,146.618s87.661-97.745,87.661-146.618
	c0-48.097-39.564-87.661-87.661-87.661C352.194,7.758,313.406,47.321,313.406,95.418z"/>
<path style="fill:#193651;" d="M401.067,249.794c-2.327,0-4.655-0.776-5.43-2.327c-3.879-3.879-89.988-100.848-89.988-151.273
	C305.648,42.667,348.315,0,401.067,0s95.418,42.667,95.418,95.418c0,51.2-86.109,147.394-89.988,151.273
	C404.945,248.242,403.394,249.794,401.067,249.794z M401.067,15.515c-44.218,0-79.903,35.685-79.903,79.903
	c0,34.909,53.527,103.176,79.903,134.206c27.152-31.03,79.903-100.073,79.903-134.206C480.97,51.2,445.285,15.515,401.067,15.515z"
	/>
<circle style="fill:#F16051;" cx="401.067" cy="94.642" r="49.648"/>
<path style="fill:#FFFFFF;" d="M7.758,380.897c0,35.685,64.388,107.83,64.388,107.83s64.388-72.145,64.388-107.83
	s-28.703-64.388-64.388-64.388S7.758,345.212,7.758,380.897z"/>
<path style="fill:#193651;" d="M72.145,496.485c-2.327,0-4.655-0.776-5.43-2.327C59.733,486.4,0,418.133,0,380.897
	c0-40.339,32.582-72.145,72.145-72.145s72.145,32.582,72.145,72.145c0,38.012-59.733,105.503-66.715,113.261
	C76.8,495.709,74.473,496.485,72.145,496.485z M72.145,323.491c-31.03,0-56.63,25.6-56.63,57.406
	c0,24.048,37.236,72.921,56.63,96.194c20.17-23.273,56.63-72.145,56.63-96.194C129.552,349.091,103.952,323.491,72.145,323.491z"/>
<circle style="fill:#F16051;" cx="72.145" cy="380.121" r="31.806"/>
<g>
	<path style="fill:#193651;" d="M22.497,300.218H6.982c0-2.327,0-5.43,0-7.758l15.515,0.776
		C22.497,295.564,22.497,297.891,22.497,300.218z"/>
	<path style="fill:#193651;" d="M23.273,278.497l-15.515-1.552c0.776-5.43,0.776-10.085,1.552-15.515l15.515,2.327
		C24.048,268.412,24.048,273.067,23.273,278.497z M27.927,249.018l-15.515-3.103c0.776-5.43,2.327-10.085,3.879-14.739l14.739,3.879
		C30.255,239.709,28.703,244.364,27.927,249.018z M35.685,221.091l-14.739-5.43c1.552-4.655,3.879-10.085,5.43-14.739l13.964,6.206
		C38.788,211.782,37.236,216.436,35.685,221.091z M46.545,193.939l-13.964-6.982c2.327-4.655,4.655-9.309,6.982-13.964l13.188,7.758
		C51.2,185.406,48.873,189.285,46.545,193.939z M61.285,168.339l-13.188-8.533c3.103-3.879,6.206-8.533,9.309-12.412l12.412,9.309
		C66.715,160.582,63.612,164.461,61.285,168.339z M78.352,145.067l-11.636-10.085c3.103-3.879,6.982-7.758,10.085-11.636
		l11.636,10.861C85.333,137.309,81.455,141.188,78.352,145.067z M98.521,123.345l-10.861-11.636
		c3.879-3.879,7.758-6.982,11.636-10.085l10.085,11.636C106.279,117.139,102.4,120.242,98.521,123.345z M121.018,104.727
		l-9.309-12.412c3.879-3.103,8.533-6.206,12.412-8.533l8.533,13.188C128.776,99.297,124.897,101.624,121.018,104.727z
		 M145.842,89.212l-7.758-13.188c4.655-2.327,9.309-4.655,13.964-6.982l6.982,13.964C154.376,84.558,149.721,86.885,145.842,89.212z
		 M172.218,76.024l-6.206-13.964c4.655-2.327,9.309-3.879,14.739-5.43l5.43,14.739C180.752,72.145,176.097,74.473,172.218,76.024z
		 M199.37,66.715l-3.879-14.739c4.655-1.552,10.085-2.327,14.739-3.879l3.103,15.515C208.679,64.388,204.024,65.164,199.37,66.715z
		 M228.073,60.509l-2.327-15.515c5.43-0.776,10.085-1.552,15.515-1.552l1.552,15.515C238.158,58.958,232.727,59.733,228.073,60.509z
		"/>
	<path style="fill:#193651;" d="M257.552,57.406l-0.776-15.515c2.327,0,5.43,0,7.758,0v15.515
		C262.206,57.406,259.879,57.406,257.552,57.406z"/>
</g>
<g>
</g>
<g>
</g>
<g>
</g>
<g>
</g>
<g>
</g>
<g>
</g>
<g>
</g>
<g>
</g>
<g>
</g>
<g>
</g>
<g>
</g>
<g>
</g>
<g>
</g>
<g>
</g>
<g>
</g>
</svg>
