<?xml version="1.0" encoding="UTF-8"?>
<svg xmlns="http://www.w3.org/2000/svg" id="icons" viewBox="0 0 60 60" width="512" height="512"><path d="M7.988,59.47a.5.5,0,0,1-.265-.924l3.283-2.056L5.962,59.4a.5.5,0,0,1-.516-.856l5.831-3.653L3.6,59.325a.5.5,0,0,1-.522-.852l14.578-9.4-15.8,9.12a.5.5,0,0,1-.512-.858L5.283,54.9,1.373,57.16A.5.5,0,0,1,.857,56.3l11.191-7.032L1.28,55.489a.5.5,0,0,1-.513-.857l7.971-4.957L1.28,53.98a.5.5,0,0,1-.512-.858l5.524-3.414L1.28,52.6a.5.5,0,0,1-.518-.855l14.655-9.338L1.28,50.57a.5.5,0,0,1-.519-.853L16.31,39.764,1.28,48.44a.5.5,0,0,1-.514-.856l9.492-5.929L1.28,46.838a.5.5,0,0,1-.517-.856l13.176-8.339L1.28,44.951a.5.5,0,0,1-.511-.858l2.714-1.668L1.28,43.7a.5.5,0,0,1-.519-.853l15.327-9.8L1.28,41.592a.5.5,0,0,1-.511-.859L4.4,38.5,1.28,40.3a.5.5,0,0,1-.516-.856l11.6-7.3L1.28,38.545a.5.5,0,0,1-.512-.858l4.97-3.068L1.28,37.192a.5.5,0,0,1-.511-.858L2.94,35l-1.66.958A.5.5,0,0,1,.764,35.1l11.715-7.373L1.28,34.2a.5.5,0,0,1-.52-.853L16.771,23.068,1.28,32.012a.5.5,0,0,1-.521-.853L17.69,20.235,1.28,29.709a.5.5,0,0,1-.515-.856l10.017-6.267-9.5,5.485a.5.5,0,0,1-.519-.853l15.318-9.794L1.28,25.968a.5.5,0,0,1-.518-.855L15,16.06,1.28,23.979a.5.5,0,0,1-.514-.856L10.3,17.161,1.28,22.367a.5.5,0,0,1-.519-.853l13.531-8.647L1.28,20.379a.5.5,0,0,1-.514-.858l5.1-3.179L1.28,18.991a.5.5,0,0,1-.513-.857l.923-.572-.41.236a.5.5,0,0,1-.527-.849L12.4,9.175,1.28,15.6a.5.5,0,0,1-.528-.848l8.8-5.906L1.28,13.615a.5.5,0,0,1-.535-.844L8.407,7.45,1.28,11.564a.5.5,0,0,1-.527-.848L2.845,9.323l-1.565.9a.5.5,0,0,1-.535-.844l2.737-1.9L1.28,8.755a.5.5,0,0,1-.571-.817l4.3-3.594L1.28,6.494A.5.5,0,0,1,.72,5.67l1.032-.82-.472.272A.5.5,0,0,1,.625,4.4l1.259-1.74-.021.012a.5.5,0,0,1-.5-.865L3.411.62a.5.5,0,0,1,.655.726L2.808,3.086,7.118.6a.5.5,0,0,1,.561.824l-1.033.82L9.495.6a.5.5,0,0,1,.571.816l-4.3,3.6L13.41.6a.5.5,0,0,1,.535.843l-2.74,1.9L15.96.6a.5.5,0,0,1,.527.848L14.4,2.839,18.277.6a.5.5,0,0,1,.535.843l-7.659,5.32L21.828.6a.5.5,0,0,1,.528.847l-8.8,5.909L25.261.6a.5.5,0,0,1,.527.848L14.137,9.221,29.073.6a.5.5,0,0,1,.514.857l-.916.567L31.14.6a.5.5,0,0,1,.514.857l-5.1,3.179L33.032.893a.5.5,0,0,1,.52.853L20.017,10.4,34.344,2.124a.5.5,0,0,1,.514.856L25.317,8.947l9.4-5.426a.5.5,0,0,1,.518.855L21.011,13.422,34.72,5.507a.5.5,0,0,1,.519.853L19.921,16.154,34.72,7.61a.5.5,0,0,1,.515.857L25.2,14.743,34.72,9.249a.5.5,0,0,1,.521.853L18.317,21.021l16.4-9.47a.5.5,0,0,1,.52.853L19.229,22.679,34.72,13.735a.5.5,0,0,1,.516.856l-11.727,7.38L34.72,15.5a.5.5,0,0,1,.511.858l-2.145,1.318,1.634-.944a.5.5,0,0,1,.512.859l-4.97,3.067,4.458-2.573a.5.5,0,0,1,.516.855L23.62,26.247l11.1-6.408a.5.5,0,0,1,.511.858l-3.612,2.224,3.1-1.79a.5.5,0,0,1,.519.853l-15.327,9.8L34.72,23.235a.5.5,0,0,1,.511.859l-2.714,1.668,2.2-1.272a.5.5,0,0,1,.517.856L22.05,33.692l12.67-7.314a.5.5,0,0,1,.514.856l-9.492,5.929L34.72,27.98a.5.5,0,0,1,.519.854L19.7,38.781,34.72,30.109a.5.5,0,0,1,.518.855L20.574,40.309,34.72,32.142a.5.5,0,0,1,.512.858l-5.5,3.4L34.72,33.52a.5.5,0,0,1,.513.857l-7.971,4.957,7.458-4.306a.5.5,0,0,1,.515.857l-11.2,7.04,10.69-6.171a.5.5,0,0,1,.512.858L31.3,40.035l3.417-1.972a.5.5,0,0,1,.521.852l-14.574,9.4L34.72,40.2a.5.5,0,0,1,.515.857l-5.843,3.661,5.328-3.075a.5.5,0,0,1,.515.856l-3.269,2.047,2.754-1.59a.5.5,0,0,1,.525.85L25.706,50.1l9.014-5.2a.5.5,0,0,1,.534.843l-9.54,6.583,9.006-5.2a.5.5,0,0,1,.534.844L28.838,52.4l5.882-3.4a.5.5,0,0,1,.541.84l-4.935,3.524,4.394-2.536a.5.5,0,0,1,.554.829l-4.02,3.092,3.466-2a.5.5,0,0,1,.558.826l-1.836,1.44,1.278-.736a.5.5,0,0,1,.633.754l-1.745,2.079.928-.535a.5.5,0,1,1,.5.865L31.653,59.4a.5.5,0,0,1-.632-.754l1.744-2.08L27.855,59.4a.5.5,0,0,1-.558-.826l1.833-1.438L25.206,59.4a.5.5,0,0,1-.555-.829l4.021-3.092L21.879,59.4a.5.5,0,0,1-.541-.839l4.933-3.524L18.713,59.4a.5.5,0,0,1-.534-.843l6.414-4.437L15.447,59.4a.5.5,0,0,1-.534-.843l9.543-6.585L11.588,59.4a.5.5,0,0,1-.526-.849L20.6,52.268,8.238,59.4A.5.5,0,0,1,7.988,59.47Z" fill="#5fc77d"/><path d="M41.026,50.618a.5.5,0,0,1-.25-.932l12.122-7a.5.5,0,0,1,.576.812l-1.5,1.287,1.462-.844a.5.5,0,0,1,.619.77L52,46.96a.5.5,0,0,1,.206.931l-2.3,1.326a.5.5,0,0,1-.619-.77l1.847-2.024-3.346,1.931a.5.5,0,0,1-.575-.812l1.506-1.289-7.447,4.3A.494.494,0,0,1,41.026,50.618Z" fill="#bfdbf0"/><path d="M47.389,41.346a.5.5,0,0,1-.3-.9L51.3,37.348l-1.653.954a.5.5,0,0,1-.545-.836l2.227-1.637-.831.48a.5.5,0,0,1-.563-.823L53.411,32.7,51.074,34.05a.5.5,0,0,1-.563-.822l2.055-1.658-1.286.743a.5.5,0,0,1-.585-.8l1.633-1.472-1.045.6a.5.5,0,0,1-.625-.764l1.984-2.249-1.612.93a.5.5,0,0,1-.591-.8l.661-.614-.354.2a.5.5,0,0,1-.6-.785l1.021-1.028-.86.5a.5.5,0,0,1-.654-.136.5.5,0,0,1,.066-.666L50,24.968l-.123.07a.5.5,0,0,1-.63-.757l1.383-1.621-1.554.9a.5.5,0,0,1-.609-.781l2.016-2.082-2.427,1.4a.5.5,0,0,1-.578-.811l1.961-1.7-2.38,1.374a.5.5,0,0,1-.574-.814l1.755-1.485-2.25,1.3a.5.5,0,0,1-.6-.791l2.788-2.712-3.9,2.249a.5.5,0,0,1-.625-.764l1.77-2L42.4,17.688a.5.5,0,0,1-.646-.737l1.4-1.816L40.121,16.88a.5.5,0,0,1-.595-.795l.781-.742L38.286,16.51a.5.5,0,0,1-.627-.762l1.55-1.776-4.267,2.464a.5.5,0,0,1-.567-.82l.707-.581L31.349,17.19a.5.5,0,1,1-.5-.865l8.992-5.191a.5.5,0,0,1,.567.819l-.706.58,1.61-.929a.5.5,0,0,1,.627.761L40.39,14.141l3.064-1.77a.5.5,0,0,1,.595.8l-.782.743,1.555-.9a.5.5,0,0,1,.647.737l-1.4,1.816,3.506-2.023a.5.5,0,0,1,.625.764l-1.768,2,4.721-2.727a.5.5,0,0,1,.6.791l-2.788,2.712L52.58,15a.5.5,0,0,1,.573.814L51.4,17.3l2.08-1.2a.5.5,0,0,1,.577.81l-1.964,1.7.99-.571a.5.5,0,0,1,.609.78L51.674,20.9l.975-.562a.5.5,0,0,1,.63.757L51.9,22.719l1.571-.906a.5.5,0,0,1,.588.8l-.287.262.148-.085a.5.5,0,0,1,.605.785L53.5,24.6l.921-.532a.5.5,0,0,1,.591.8l-.661.615.436-.252a.5.5,0,0,1,.625.764l-1.983,2.249L55.936,26.8a.5.5,0,0,1,.585.8l-1.631,1.47,2.756-1.592a.5.5,0,0,1,.564.823l-2.06,1.66,2.441-1.408a.5.5,0,0,1,.562.822l-3.47,2.783,3-1.734a.5.5,0,0,1,.545.836L57,32.9l1.639-.945a.5.5,0,0,1,.545.836l-4.326,3.181a.5.5,0,0,1,.385.914l-7.607,4.391A.493.493,0,0,1,47.389,41.346Z" fill="#bfdbf0"/><path d="M32.056,11.757a.5.5,0,0,1-.4-.8l1.166-1.589a.5.5,0,0,1-.067-.9L34.1,7.692a.5.5,0,0,1,.653.729l-.891,1.213,3.38-1.95a.5.5,0,1,1,.5.865l-5.44,3.14A.49.49,0,0,1,32.056,11.757Z" fill="#bfdbf0"/><path d="M36.264,54.438a.5.5,0,0,1-.333-.874l.087-.077-1.418.819a.5.5,0,0,1-.521-.854l.6-.386-1.264.73a.5.5,0,0,1-.522-.852l4.558-2.965-4.578,2.643a.5.5,0,0,1-.524-.851L39.6,47.015l-7.3,4.213a.5.5,0,0,1-.577-.811l1.6-1.383-2.455,1.417a.5.5,0,0,1-.589-.8l1.011-.928-2.06,1.188a.5.5,0,0,1-.632-.754l1.446-1.725-2.781,1.605a.5.5,0,0,1-.627-.761l1.252-1.44-2.244,1.294a.5.5,0,0,1-.627-.76l1.2-1.385L21.3,48.821a.5.5,0,0,1-.59-.8l2.581-2.4-3.344,1.931a.5.5,0,0,1-.6-.788l2.837-2.806L18.59,46.036a.5.5,0,0,1-.58-.808l2.1-1.841-1.252.722a.5.5,0,0,1-.594-.8l1.693-1.608-.428.246a.5.5,0,0,1-.645-.738l1.579-2.046-1.891,1.091a.5.5,0,0,1-.634-.753L19.528,37.6l-1.7.98a.5.5,0,0,1-.614-.775L18.6,36.325l-1.293.746a.5.5,0,0,1-.587-.8l.589-.538-.326.188a.5.5,0,0,1-.614-.774l1.89-2.015-3.019,1.742a.5.5,0,0,1-.588-.8l2.758-2.533-3.9,2.253a.5.5,0,0,1-.544-.837l.43-.313-.054.031a.5.5,0,0,1-.568-.819l4.513-3.7-3.952,2.282a.5.5,0,0,1-.55-.834l4.285-3.2a.5.5,0,0,1-.457-.882l10.164-6.793-8.745,5.048a.5.5,0,0,1-.524-.85l6.674-4.376-4.971,2.869a.5.5,0,0,1-.551-.832l5.58-4.2-5.127,2.96a.5.5,0,0,1-.652-.137.5.5,0,0,1,.063-.664l2.039-1.879-2.07,1.2a.5.5,0,0,1-.617-.771l2.268-2.459a.488.488,0,0,1-.178-.18.5.5,0,0,1,.182-.682l1.76-1.017a.5.5,0,0,1,.617.771L20.84,15.354l3.13-1.807a.5.5,0,0,1,.589.8L22.52,16.226l8.334-4.812a.5.5,0,0,1,.551.832l-5.58,4.2,13.1-7.563a.5.5,0,0,1,.524.85l-6.677,4.379,6.715-3.877a.5.5,0,0,1,.528.849L24.489,21.461c.01.012.019.024.029.038a.5.5,0,0,1-.119.676l-4.244,3.172,1.941-1.12a.5.5,0,0,1,.567.819l-4.513,3.7,2.966-1.712a.5.5,0,0,1,.544.837l-.653.476a.5.5,0,0,1,.495.2.5.5,0,0,1-.065.664l-2.759,2.533,2.012-1.161a.5.5,0,0,1,.615.775l-1.888,2.012,1.4-.81a.5.5,0,0,1,.587.8l-.592.54.22-.127a.5.5,0,0,1,.614.774l-1.389,1.48,1.2-.694a.5.5,0,0,1,.634.753l-1.591,1.907,1.648-.951a.5.5,0,0,1,.646.738L21.222,39.82,23.1,38.733a.5.5,0,0,1,.6.8L22,41.139l2-1.156a.5.5,0,0,1,.58.809l-2.1,1.84,2.56-1.477a.5.5,0,0,1,.6.788l-2.836,2.8,3.816-2.2a.5.5,0,0,1,.59.8l-2.581,2.4,3.641-2.1a.5.5,0,0,1,.628.759l-1.2,1.385,2.267-1.307a.5.5,0,0,1,.627.76l-1.251,1.441L32,45.149a.5.5,0,0,1,.633.754l-1.446,1.726,3.529-2.037a.5.5,0,0,1,.589.8l-1.012.929L37.4,45.53a.5.5,0,0,1,.578.811l-1.6,1.38L54.3,37.372a.5.5,0,0,1,.524.851l-7.258,4.761,5.71-3.3a.5.5,0,0,1,.523.851l-4.565,2.969,3.22-1.859a.5.5,0,0,1,.521.854l-12.49,8.021a.5.5,0,0,1-.159.461l-.762.679a.5.5,0,0,1,.073.9L36.514,54.37A.49.49,0,0,1,36.264,54.438Z" fill="#bfdbf0"/><path d="M17.9,7.47a.5.5,0,0,1-.3-.9l1.273-.953L15.773,7.4a.5.5,0,0,1-.559-.825L17.341,4.9,13.005,7.4a.5.5,0,0,1-.575-.812l2.863-2.457-5.109,2.95a.5.5,0,0,1-.594-.8l2.862-2.7L9.28,5.413a.5.5,0,0,1-.646-.737l1.5-1.957-.859.5a.5.5,0,0,1-.73-.57L8.8,1.763a.49.49,0,0,1-.2-.195A.5.5,0,0,1,8.78.886L9.281.6a.5.5,0,0,1,.731.57l-.161.562L11.822.592a.5.5,0,0,1,.626.1.5.5,0,0,1,.021.634L10.963,3.287l4.68-2.7a.5.5,0,0,1,.593.8l-2.861,2.7L19.448.579a.5.5,0,0,1,.575.813l-2.867,2.46L22.835.574a.5.5,0,0,1,.56.825L21.271,3.074,25.61.569a.5.5,0,0,1,.55.833l-1.275.955L26.72,1.3a.5.5,0,0,1,.561.824L25.967,3.168l.753-.435a.5.5,0,0,1,.642.743L25.976,5.235l.724-.418a.5.5,0,1,1,.5.866L24.222,7.4a.5.5,0,0,1-.643-.742L24.966,4.9,20.632,7.4a.5.5,0,0,1-.562-.824l1.318-1.047L18.146,7.4A.5.5,0,0,1,17.9,7.47Z" fill="#e1efff"/><path d="M.426,56.04c.7,4.033,4.259,3.441,7.474,3.441H28.588c4.165,0,6.674-.429,6.957-4.774a5.535,5.535,0,0,0,4.038-1.335c1.471-1.6.476-2.252,2.965-3.13a18.305,18.305,0,0,0,4.35-2.059l1.444.616c2.294.136,4.73.342,5.812-2.794.68-1.973-.834-2.244-.832-4,.848-1.46,1.621-5.215,2.639-6.528.748-.765,2.392-.518,3.1-1.451.958-1.275.54-3.4.441-4.889-.237-.906-.546-1.08-1.282-1.639-1.505-1.141-1.608-.409-2.622-2.106a16.709,16.709,0,0,1-1.989-5.9c-.081-1.5,1.247-1.5.547-3.342-.666-1.748-3.109-3.574-5.02-3.367-1.5.163-1.746.785-3.289.486-8.885-2.036-3.978-5.843-10.269-5.793,0-3.856-.008-6.744-4.564-6.959C25.1.24,19.115.519,13.2.519,6.014.18-1.054-1.654.427,8.565.609,24.372.146,40.27.426,56.04ZM37.065,8.865c2.682.834,1.062,1.26,2.547,2.848.483.516,1.158.415,1.8.682,1.237.511,4.132,2.44,5.362,2.427.724-.008,1.31-.64,2.008-.756a3.574,3.574,0,0,1,4.163,3.914c-.077.726-.888,1.428-.894,2.17-.01,1.166,1.905,4.147,2.411,5.326.322.751.255,1.259.772,1.8.873.915,2.494.331,3.092,1.767.327,3.249-.239,4.731-3.4,5.757a59.382,59.382,0,0,0-2.852,7.012c.032.8.993,1.575,1.016,2.379-.023,3.711-4.05,4.245-6.4,2.984-1.146-.04-2.932,1.539-4.043,1.955-3.722,1.392-1.84.611-3.892,3.125-2.4,2.769-5.75.445-6.487-2.134-.655-.63-2.175-.642-3.06-.975C28.825,49,26,47.1,25.147,47.176c-2.311,1.237-6.226.761-6.237-2.827.1-3.571,1.5-1.174-.347-5.2-.453-.986-.74-3.46-1.49-4.209-.335-.334-.929-.284-1.254-.589-1.105-1.036-1.033-.023-1.841-1.6a3.424,3.424,0,0,1,.074-3.422c.911-1.678,1.477-.909,2.716-1.976.64-.551,3.151-6.345,3.158-6.921-.858-2.178-1.267-5.281,1.785-6.247,1.5-.448,2.968.444,4.543.2,2.087-.326,4.9-2.053,6.409-3.179C33.41,8.92,34.657,8.012,37.065,8.865ZM26.4,2.086c-.48,1.451,1.054,3.872-1.489,4.466H13.987C9.253,6.9,9.642,5.46,9.523,1.481q8.456,0,16.91,0A2.005,2.005,0,0,1,26.4,2.086ZM1.574,4.888C2.4,1.042,5.241,1.455,8.4,1.479c-.02,3.43-.192,5.9,3.883,5.969,4.249.076,8.505,0,12.754,0,3.026-.465,2.686-3.544,2.569-6.024,5.048-.738,7.512,1.162,6.832,6.085-1.6.206-1.233,1.2-2.775,2.961-1.032,1.181-2.8,1.4-4.346,2.125-1.279.595-1.629,1.112-2.873.941-2.335-1.682-5.752-.009-6.617,2.579-.566,1.877.857,2.2.851,3.88-.005,1.245-1.764,4.284-2.274,5.24-1.35,2.532-3.688,1.647-3.977,5-.263,3.047.251,2.907,1.968,4.508.429.4,1.392.286,1.79.714.525.568.882,3.045,1.233,3.852,1.231,2.836.774,2.093.36,4.639-.426,2.634,2.593,5.981,5.367,5.146.665-.118,1.434-.919,2.1-.9.871.028,2.724,1.455,3.662,1.8,2.59.944,1.915.731,3.338,2.834A2.8,2.8,0,0,0,34.4,54.545c-.29,5.207-5.746,3.974-9.552,3.974H9.26C-.759,59.987,1.465,52.825,1.574,45.782,1.814,32.185,1.2,18.431,1.574,4.888Z" fill="#262626"/><path d="M34.777,15.488C14.565,17.964,16.7,47.442,37.224,46.512,57.28,44.24,55.115,14.385,34.777,15.488ZM21.481,30.9A14.5,14.5,0,0,1,34.537,16.661V45.332A14.759,14.759,0,0,1,21.481,30.9Zm15.742-14.26c18.464,2.223,16.872,28.98-1.76,28.756V16.6A14.02,14.02,0,0,1,37.223,16.635Z" fill="#262626"/><path d="M5,6.6c.669-.029.669-2.18-.006-2.2C4.328,4.428,4.328,6.58,5,6.6Z" fill="#262626"/><path d="M31.588,6.053v-1c0-.572-1.176-.75-1.176-.106v1C30.412,6.519,31.588,6.7,31.588,6.053Z" fill="#262626"/><path d="M10.846,55.468c1.018-.286,17.445.817,14.309-.936C24.136,54.818,7.709,53.715,10.846,55.468Z" fill="#262626"/></svg>
