<svg id="&#x421;&#x43B;&#x43E;&#x439;_1" viewBox="0 0 128 128" xmlns="http://www.w3.org/2000/svg"><path d="m91.66 25.25a11.66 11.66 0 0 0 -16.39-13.61 19.76 19.76 0 0 0 -36.73 10.12v.77a11.74 11.74 0 1 0 0 23.47h52.27a10.39 10.39 0 0 0 .85-20.75z" fill="#6fcbfb"/><path d="m90.81 48h-52.27a13.74 13.74 0 0 1 -2-27.33 21.76 21.76 0 0 1 39.46-11.51 13.47 13.47 0 0 1 4.37-.72 13.7 13.7 0 0 1 13.73 13.68 13.16 13.16 0 0 1 -.1 1.52 12.39 12.39 0 0 1 -3.19 24.36zm-52.31-23.47a9.74 9.74 0 0 0 0 19.47h52.31a8.39 8.39 0 0 0 .69-16.75 2 2 0 0 1 -1.76-2.53 9.66 9.66 0 0 0 -9.32-12.28 9.59 9.59 0 0 0 -4.26 1 2 2 0 0 1 -2.6-.77 17.76 17.76 0 0 0 -33 9.1v.69a2 2 0 0 1 -.56 1.46 1.91 1.91 0 0 1 -1.5.61z" fill="#404040"/><rect fill="#fff" height="44" rx="2.79" width="24" x="2" y="82"/><path d="m23.21 128h-18.42a4.79 4.79 0 0 1 -4.79-4.79v-38.42a4.79 4.79 0 0 1 4.79-4.79h18.42a4.79 4.79 0 0 1 4.79 4.79v38.43a4.79 4.79 0 0 1 -4.79 4.78zm-18.42-44a.8.8 0 0 0 -.79.79v38.43a.8.8 0 0 0 .79.79h18.42a.8.8 0 0 0 .79-.79v-38.43a.8.8 0 0 0 -.79-.79z" fill="#404040"/><path d="m14 116a2 2 0 1 0 2 2 2 2 0 0 0 -2-2z" fill="#404040"/><rect fill="#fff" height="44" rx="2.79" width="24" x="52" y="82"/><path d="m73.21 128h-18.42a4.79 4.79 0 0 1 -4.79-4.79v-38.42a4.79 4.79 0 0 1 4.79-4.79h18.42a4.79 4.79 0 0 1 4.79 4.79v38.43a4.79 4.79 0 0 1 -4.79 4.78zm-18.42-44a.8.8 0 0 0 -.79.79v38.43a.8.8 0 0 0 .79.79h18.42a.8.8 0 0 0 .79-.79v-38.43a.8.8 0 0 0 -.79-.79z" fill="#404040"/><path d="m64 116.18a2 2 0 1 0 2.08 2 2 2 0 0 0 -2.08-2z" fill="#404040"/><rect fill="#fff" height="44" rx="2.79" width="24" x="102" y="82"/><g fill="#404040"><path d="m123.21 128h-18.42a4.79 4.79 0 0 1 -4.79-4.79v-38.42a4.79 4.79 0 0 1 4.79-4.79h18.43a4.79 4.79 0 0 1 4.78 4.79v38.43a4.79 4.79 0 0 1 -4.79 4.78zm-18.42-44a.8.8 0 0 0 -.79.79v38.43a.8.8 0 0 0 .79.79h18.43a.8.8 0 0 0 .79-.79v-38.43a.8.8 0 0 0 -.79-.79z"/><path d="m114 116.18a2 2 0 1 0 2.08 2 2 2 0 0 0 -2.08-2z"/><path d="m114 76a2 2 0 0 1 -2-2v-10h-96v10a2 2 0 0 1 -4 0v-12a2 2 0 0 1 2-2h100a2 2 0 0 1 2 2v12a2 2 0 0 1 -2 2z"/><path d="m64 76a2 2 0 0 1 -2-2v-20a2 2 0 0 1 4 0v20a2 2 0 0 1 -2 2z"/></g></svg>