<svg height="512" viewBox="0 0 512 512" width="512" xmlns="http://www.w3.org/2000/svg"><g><g><path d="m496 376v24a24.006 24.006 0 0 1 -24 24h-432a24.006 24.006 0 0 1 -24-24v-24z" fill="#57565c"/><path d="m496 160v216h-480v-216a24.006 24.006 0 0 1 24-24h432a24.006 24.006 0 0 1 24 24z" fill="#bddbff"/><path d="m312 472h-112l16-48h80z" fill="#e0e0e2"/><path d="m168 472h176v24h-176z" fill="#57565c"/><path d="m48 160h32v56h-32z" fill="#ab2300"/><path d="m272 160h32v56h-32z" fill="#ff9811"/><path d="m104 72h32v144h-32z" fill="#83d8f4"/><path d="m160 16h32v200h-32z" fill="#91cc04"/><path d="m216 48h32v168h-32z" fill="#ffda44"/><circle cx="64" cy="296" fill="#83d8f4" r="16"/><circle cx="192" cy="336" fill="#91cc04" r="16"/><circle cx="320" cy="264" fill="#ab2300" r="16"/><circle cx="448" cy="320" fill="#ff9811" r="16"/><g fill="#e0e0e2"><path d="m80 296 96 40"/><path d="m208 336 96-72"/><path d="m336 264 96 56"/></g><path d="m472 80a64.007 64.007 0 0 1 -109.26 45.26l45.26-45.26z" fill="#83d8f4"/><path d="m408 16v64l-45.26 45.26a64.007 64.007 0 0 1 45.26-109.26z" fill="#ffda44"/><path d="m472 80h-64v-64a64 64 0 0 1 64 64z" fill="#ab2300"/></g><g><path d="m472 128h-10.39a72 72 0 1 0 -107.22 0h-98.39v-80a8 8 0 0 0 -8-8h-32a8 8 0 0 0 -8 8v80h-8v-112a8 8 0 0 0 -8-8h-32a8 8 0 0 0 -8 8v112h-8v-56a8 8 0 0 0 -8-8h-32a8 8 0 0 0 -8 8v56h-56a32.036 32.036 0 0 0 -32 32v240a32.036 32.036 0 0 0 32 32h164.9l-10.67 32h-26.23a8 8 0 0 0 -8 8v16h-80a8 8 0 0 0 0 16h352a8 8 0 0 0 0-16h-80v-16a8 8 0 0 0 -8-8h-26.23l-10.67-32h164.9a32.036 32.036 0 0 0 32-32v-240a32.036 32.036 0 0 0 -32-32zm-56-103.42a56.11 56.11 0 0 1 47.42 47.42h-47.42zm-4.69 63.42h52.11a55.962 55.962 0 0 1 -88.94 36.83zm-59.31-8a56.086 56.086 0 0 1 48-55.42v52.11l-36.83 36.83a55.708 55.708 0 0 1 -11.17-33.52zm-128-24h16v152h-16zm-24 88h8v64h-8zm-32-120h16v184h-16zm-24 120h8v64h-8zm-32-64h16v128h-16zm224 400v8h-160v-8zm-124.9-16 10.67-32h68.46l10.67 32zm276.9-64a16.021 16.021 0 0 1 -16 16h-432a16.021 16.021 0 0 1 -16-16v-16h464zm0-32h-464v-208a16.021 16.021 0 0 1 16-16h56v64h-8v-48a8 8 0 0 0 -8-8h-32a8 8 0 0 0 -8 8v56a8 8 0 0 0 8 8h256a8 8 0 0 0 8-8v-56a8 8 0 0 0 -8-8h-32a8 8 0 0 0 -8 8v48h-8v-64h119.08a71.733 71.733 0 0 0 65.84 0h31.08a16.021 16.021 0 0 1 16 16zm-416-200v40h-16v-40zm208 40v-40h16v40z"/><path d="m96 392h-48a8 8 0 0 0 0 16h48a8 8 0 0 0 0-16z"/><path d="m128 392h-8a8 8 0 0 0 0 16h8a8 8 0 0 0 0-16z"/><path d="m344 208a7.974 7.974 0 0 0 5.657-2.343l29.656-29.657h68.687a8 8 0 0 0 0-16h-72a8 8 0 0 0 -5.657 2.343l-32 32a8 8 0 0 0 5.657 13.657z"/><path d="m448 296a24 24 0 0 0 -20.75 11.97l-83.75-48.86a24 24 0 0 0 -47.11.6l-84.28 63.21a23.979 23.979 0 0 0 -41.48 2.18l-83.3-34.71a24.01 24.01 0 1 0 -1.96 16.51l83.3 34.71a23.995 23.995 0 0 0 46.94-1.32l84.28-63.21a23.973 23.973 0 0 0 40.86-1.05l83.75 48.86a24 24 0 1 0 23.5-28.89zm-376 .04a8.02 8.02 0 1 1 0-.04zm120 47.96a8.011 8.011 0 0 1 -8-8v-.04a8 8 0 1 1 8 8.04zm128-72a8 8 0 1 1 8-8 8.011 8.011 0 0 1 -8 8zm128 56a8 8 0 1 1 8-8 8.011 8.011 0 0 1 -8 8z"/><path d="m384 344h-56a8 8 0 0 0 0 16h56a8 8 0 0 0 0-16z"/><path d="m384 320h-24a8 8 0 0 0 0 16h24a8 8 0 0 0 0-16z"/><path d="m48 248h88a8 8 0 0 0 0-16h-88a8 8 0 0 0 0 16z"/><path d="m160 248h8a8 8 0 0 0 0-16h-8a8 8 0 0 0 0 16z"/></g></g></svg>