<svg id="Icons" viewBox="0 0 60 60" xmlns="http://www.w3.org/2000/svg"><path d="m37.96 50.02a.671.671 0 0 0 -.42-.54l-.79-.32a7.1 7.1 0 0 0 -.68-1.63l.34-.78a.687.687 0 0 0 -.09-.68 11.406 11.406 0 0 0 -1.39-1.39.687.687 0 0 0 -.68-.09l-.78.34a7.1 7.1 0 0 0 -1.63-.68l-.32-.79a.671.671 0 0 0 -.54-.42 11.661 11.661 0 0 0 -1.96 0 .671.671 0 0 0 -.54.42l-.32.79a7.1 7.1 0 0 0 -1.63.68l-.78-.34a.687.687 0 0 0 -.68.09 11.406 11.406 0 0 0 -1.39 1.39.687.687 0 0 0 -.09.68l.34.78a7.1 7.1 0 0 0 -.68 1.63l-.79.32a.671.671 0 0 0 -.42.54 11.661 11.661 0 0 0 0 1.96.671.671 0 0 0 .42.54l.79.32a7.1 7.1 0 0 0 .68 1.63l-.34.78a.687.687 0 0 0 .09.68 11.406 11.406 0 0 0 1.39 1.39.687.687 0 0 0 .68.09l.78-.34a7.1 7.1 0 0 0 1.63.68l.32.79a.671.671 0 0 0 .54.42 11.661 11.661 0 0 0 1.96 0 .671.671 0 0 0 .54-.42l.32-.79a7.1 7.1 0 0 0 1.63-.68l.78.34a.687.687 0 0 0 .68-.09 11.406 11.406 0 0 0 1.39-1.39.687.687 0 0 0 .09-.68l-.34-.78a7.1 7.1 0 0 0 .68-1.63l.79-.32a.671.671 0 0 0 .42-.54 11.661 11.661 0 0 0 0-1.96zm-7.96 3.98a3 3 0 1 1 3-3 3 3 0 0 1 -3 3z" fill="#cddcea"/><path d="m37.96 29.02a.671.671 0 0 0 -.42-.54l-.79-.32a7.1 7.1 0 0 0 -.68-1.63l.34-.78a.687.687 0 0 0 -.09-.68 11.406 11.406 0 0 0 -1.39-1.39.687.687 0 0 0 -.68-.09l-.78.34a7.1 7.1 0 0 0 -1.63-.68l-.32-.79a.671.671 0 0 0 -.54-.42 11.661 11.661 0 0 0 -1.96 0 .671.671 0 0 0 -.54.42l-.32.79a7.1 7.1 0 0 0 -1.63.68l-.78-.34a.687.687 0 0 0 -.68.09 11.406 11.406 0 0 0 -1.39 1.39.687.687 0 0 0 -.09.68l.34.78a7.1 7.1 0 0 0 -.68 1.63l-.79.32a.671.671 0 0 0 -.42.54 11.661 11.661 0 0 0 0 1.96.671.671 0 0 0 .42.54l.79.32a7.1 7.1 0 0 0 .68 1.63l-.34.78a.687.687 0 0 0 .09.68 11.406 11.406 0 0 0 1.39 1.39.687.687 0 0 0 .68.09l.78-.34a7.1 7.1 0 0 0 1.63.68l.32.79a.671.671 0 0 0 .54.42 11.661 11.661 0 0 0 1.96 0 .671.671 0 0 0 .54-.42l.32-.79a7.1 7.1 0 0 0 1.63-.68l.78.34a.687.687 0 0 0 .68-.09 11.406 11.406 0 0 0 1.39-1.39.687.687 0 0 0 .09-.68l-.34-.78a7.1 7.1 0 0 0 .68-1.63l.79-.32a.671.671 0 0 0 .42-.54 11.661 11.661 0 0 0 0-1.96zm-7.96 3.98a3 3 0 1 1 3-3 3 3 0 0 1 -3 3z" fill="#cddcea"/><path d="m37.96 8.02a.671.671 0 0 0 -.42-.54l-.79-.32a7.1 7.1 0 0 0 -.68-1.63l.34-.78a.687.687 0 0 0 -.09-.68 11.406 11.406 0 0 0 -1.39-1.39.687.687 0 0 0 -.68-.09l-.78.34a7.1 7.1 0 0 0 -1.63-.68l-.32-.79a.671.671 0 0 0 -.54-.42 11.661 11.661 0 0 0 -1.96 0 .671.671 0 0 0 -.54.42l-.32.79a7.1 7.1 0 0 0 -1.63.68l-.78-.34a.687.687 0 0 0 -.68.09 11.406 11.406 0 0 0 -1.39 1.39.687.687 0 0 0 -.09.68l.34.78a7.1 7.1 0 0 0 -.68 1.63l-.79.32a.671.671 0 0 0 -.42.54 11.661 11.661 0 0 0 0 1.96.671.671 0 0 0 .42.54l.79.32a7.1 7.1 0 0 0 .68 1.63l-.34.78a.687.687 0 0 0 .09.68 11.406 11.406 0 0 0 1.39 1.39.687.687 0 0 0 .68.09l.78-.34a7.1 7.1 0 0 0 1.63.68l.32.79a.671.671 0 0 0 .54.42 11.661 11.661 0 0 0 1.96 0 .671.671 0 0 0 .54-.42l.32-.79a7.1 7.1 0 0 0 1.63-.68l.78.34a.687.687 0 0 0 .68-.09 11.406 11.406 0 0 0 1.39-1.39.687.687 0 0 0 .09-.68l-.34-.78a7.1 7.1 0 0 0 .68-1.63l.79-.32a.671.671 0 0 0 .42-.54 11.661 11.661 0 0 0 0-1.96zm-7.96 3.98a3 3 0 1 1 3-3 3 3 0 0 1 -3 3z" fill="#cddcea"/><path d="m13 32.88v-.88h-2a2.006 2.006 0 0 0 -2 2v12a3 3 0 0 0 3 3h1v-.88a1.086 1.086 0 0 1 1.86-.79l2.82 2.88a1.129 1.129 0 0 1 0 1.58l-2.82 2.88a1.086 1.086 0 0 1 -1.86-.79v-.88h-1a7 7 0 0 1 -7-7v-12a2 2 0 0 0 -2-2h-1a1 1 0 0 1 -1-1v-2a1 1 0 0 1 1-1h1a2 2 0 0 0 2-2v-12a7 7 0 0 1 7-7h1v-.88a1.086 1.086 0 0 1 1.86-.79l2.82 2.88a1.129 1.129 0 0 1 0 1.58l-2.82 2.88a1.086 1.086 0 0 1 -1.86-.79v-.88h-1a3 3 0 0 0 -3 3v12a2.006 2.006 0 0 0 2 2h2v-.88a1.086 1.086 0 0 1 1.86-.79l2.82 2.88a1.129 1.129 0 0 1 0 1.58l-2.82 2.88a1.086 1.086 0 0 1 -1.86-.79z" fill="#69c4c6"/><path d="m54 11v.88a1.085 1.085 0 0 0 1.859.79l2.819-2.88a1.131 1.131 0 0 0 0-1.58l-2.819-2.881a1.085 1.085 0 0 0 -1.859.79v.881h-11a1 1 0 0 0 -1 1v2a1 1 0 0 0 1 1z" fill="#69c4c6"/><path d="m54 32v.88a1.085 1.085 0 0 0 1.859.79l2.819-2.881a1.131 1.131 0 0 0 0-1.58l-2.819-2.881a1.085 1.085 0 0 0 -1.859.79v.882h-11a1 1 0 0 0 -1 1v2a1 1 0 0 0 1 1z" fill="#69c4c6"/><path d="m54 53v.88a1.085 1.085 0 0 0 1.859.79l2.819-2.881a1.131 1.131 0 0 0 0-1.58l-2.819-2.881a1.085 1.085 0 0 0 -1.859.79v.882h-11a1 1 0 0 0 -1 1v2a1 1 0 0 0 1 1z" fill="#69c4c6"/><g fill="#373737"><path d="m30 47a4 4 0 1 0 4 4 4 4 0 0 0 -4-4zm0 6a2 2 0 1 1 2-2 2 2 0 0 1 -2 2z"/><path d="m37.907 48.546-.345-.138a8.041 8.041 0 0 0 -.381-.924l.148-.346a1.675 1.675 0 0 0 -.247-1.714 11.526 11.526 0 0 0 -1.507-1.507 1.677 1.677 0 0 0 -1.719-.244l-.34.146a8.192 8.192 0 0 0 -.924-.381l-.14-.351a1.677 1.677 0 0 0 -1.387-1.038 11.29 11.29 0 0 0 -2.129 0 1.678 1.678 0 0 0 -1.39 1.044l-.138.345a8.192 8.192 0 0 0 -.924.381l-.346-.148a1.675 1.675 0 0 0 -1.714.247 11.526 11.526 0 0 0 -1.507 1.507 1.679 1.679 0 0 0 -.244 1.719l.146.34a8.041 8.041 0 0 0 -.381.924l-.353.141a1.676 1.676 0 0 0 -1.036 1.386 11.46 11.46 0 0 0 0 2.129 1.679 1.679 0 0 0 1.044 1.39l.345.138a8.041 8.041 0 0 0 .381.924l-.148.346a1.675 1.675 0 0 0 .247 1.714 11.526 11.526 0 0 0 1.507 1.507 1.673 1.673 0 0 0 1.719.244l.34-.146a8.192 8.192 0 0 0 .924.381l.14.351a1.677 1.677 0 0 0 1.387 1.038c.368.033.737.049 1.1.049a10.332 10.332 0 0 0 1.034-.049 1.678 1.678 0 0 0 1.39-1.044l.138-.345a8.192 8.192 0 0 0 .924-.381l.346.148a1.67 1.67 0 0 0 1.714-.247 11.526 11.526 0 0 0 1.507-1.507 1.679 1.679 0 0 0 .244-1.719l-.146-.34a8.041 8.041 0 0 0 .381-.924l.353-.141a1.676 1.676 0 0 0 1.036-1.386 11.46 11.46 0 0 0 0-2.137 1.676 1.676 0 0 0 -1.049-1.382zm-.931 3.127-.6.238a1 1 0 0 0 -.6.666 6.016 6.016 0 0 1 -.576 1.4 1 1 0 0 0 -.052.891l.255.593a9.587 9.587 0 0 1 -.952.949l-.591-.254a1 1 0 0 0 -.89.051 6 6 0 0 1 -1.4.577 1 1 0 0 0 -.666.6l-.239.6a9.438 9.438 0 0 1 -1.345 0l-.238-.6a1 1 0 0 0 -.666-.6 6 6 0 0 1 -1.4-.577 1 1 0 0 0 -.89-.051l-.593.255a9.587 9.587 0 0 1 -.949-.952l.254-.591a1 1 0 0 0 -.052-.891 6.016 6.016 0 0 1 -.576-1.4 1 1 0 0 0 -.595-.666l-.6-.239a9.588 9.588 0 0 1 0-1.345l.6-.238a1 1 0 0 0 .595-.666 6.016 6.016 0 0 1 .576-1.4 1 1 0 0 0 .052-.891l-.255-.593a9.587 9.587 0 0 1 .952-.949l.591.254a1 1 0 0 0 .89-.051 6 6 0 0 1 1.4-.577 1 1 0 0 0 .666-.6l.239-.6a9.438 9.438 0 0 1 1.345 0l.238.6a1 1 0 0 0 .666.6 6 6 0 0 1 1.4.577 1 1 0 0 0 .89.051l.593-.255a9.587 9.587 0 0 1 .949.952l-.254.591a1 1 0 0 0 .052.891 6.016 6.016 0 0 1 .576 1.4 1 1 0 0 0 .6.666l.6.239a9.588 9.588 0 0 1 0 1.345z"/><path d="m30 26a4 4 0 1 0 4 4 4 4 0 0 0 -4-4zm0 6a2 2 0 1 1 2-2 2 2 0 0 1 -2 2z"/><path d="m37.907 27.546-.345-.138a8.041 8.041 0 0 0 -.381-.924l.148-.346a1.675 1.675 0 0 0 -.247-1.714 11.526 11.526 0 0 0 -1.507-1.507 1.679 1.679 0 0 0 -1.719-.244l-.34.146a8.192 8.192 0 0 0 -.924-.381l-.14-.351a1.677 1.677 0 0 0 -1.387-1.038 11.29 11.29 0 0 0 -2.129 0 1.678 1.678 0 0 0 -1.39 1.044l-.138.345a8.192 8.192 0 0 0 -.924.381l-.346-.148a1.677 1.677 0 0 0 -1.714.247 11.526 11.526 0 0 0 -1.507 1.507 1.679 1.679 0 0 0 -.244 1.719l.146.34a8.041 8.041 0 0 0 -.381.924l-.353.141a1.676 1.676 0 0 0 -1.036 1.386 11.46 11.46 0 0 0 0 2.129 1.679 1.679 0 0 0 1.044 1.39l.345.138a8.041 8.041 0 0 0 .381.924l-.148.346a1.675 1.675 0 0 0 .247 1.714 11.526 11.526 0 0 0 1.507 1.507 1.675 1.675 0 0 0 1.719.244l.34-.146a8.192 8.192 0 0 0 .924.381l.14.351a1.677 1.677 0 0 0 1.387 1.038c.368.033.737.049 1.1.049a10.332 10.332 0 0 0 1.034-.049 1.678 1.678 0 0 0 1.39-1.044l.138-.345a8.192 8.192 0 0 0 .924-.381l.346.148a1.672 1.672 0 0 0 1.714-.247 11.526 11.526 0 0 0 1.507-1.507 1.679 1.679 0 0 0 .244-1.719l-.146-.34a8.041 8.041 0 0 0 .381-.924l.353-.141a1.676 1.676 0 0 0 1.036-1.386 11.46 11.46 0 0 0 0-2.137 1.676 1.676 0 0 0 -1.049-1.382zm-.931 3.127-.6.238a1 1 0 0 0 -.6.666 6.016 6.016 0 0 1 -.576 1.4 1 1 0 0 0 -.052.891l.255.593a9.587 9.587 0 0 1 -.952.949l-.591-.254a1 1 0 0 0 -.89.051 6 6 0 0 1 -1.4.577 1 1 0 0 0 -.666.6l-.239.6a9.438 9.438 0 0 1 -1.345 0l-.238-.6a1 1 0 0 0 -.666-.6 6 6 0 0 1 -1.4-.577 1 1 0 0 0 -.89-.051l-.593.255a9.587 9.587 0 0 1 -.949-.952l.254-.591a1 1 0 0 0 -.052-.891 6.016 6.016 0 0 1 -.576-1.4 1 1 0 0 0 -.595-.666l-.6-.239a9.588 9.588 0 0 1 0-1.345l.6-.238a1 1 0 0 0 .595-.666 6.016 6.016 0 0 1 .576-1.4 1 1 0 0 0 .052-.891l-.255-.593a9.587 9.587 0 0 1 .952-.949l.591.254a1 1 0 0 0 .89-.051 6 6 0 0 1 1.4-.577 1 1 0 0 0 .666-.595l.239-.6a9.438 9.438 0 0 1 1.345 0l.238.6a1 1 0 0 0 .666.595 6 6 0 0 1 1.4.577 1 1 0 0 0 .89.051l.593-.255a9.587 9.587 0 0 1 .949.952l-.254.591a1 1 0 0 0 .052.891 6.016 6.016 0 0 1 .576 1.4 1 1 0 0 0 .6.666l.6.239a9.588 9.588 0 0 1 0 1.345z"/><path d="m30 5a4 4 0 1 0 4 4 4 4 0 0 0 -4-4zm0 6a2 2 0 1 1 2-2 2 2 0 0 1 -2 2z"/><path d="m37.907 6.546-.345-.138a8.041 8.041 0 0 0 -.381-.924l.148-.346a1.675 1.675 0 0 0 -.247-1.714 11.526 11.526 0 0 0 -1.507-1.507 1.682 1.682 0 0 0 -1.719-.244l-.34.146a8.192 8.192 0 0 0 -.924-.381l-.14-.351a1.677 1.677 0 0 0 -1.387-1.038 11.29 11.29 0 0 0 -2.129 0 1.678 1.678 0 0 0 -1.39 1.044l-.138.345a8.192 8.192 0 0 0 -.924.381l-.346-.148a1.677 1.677 0 0 0 -1.714.247 11.526 11.526 0 0 0 -1.507 1.507 1.679 1.679 0 0 0 -.244 1.719l.146.34a8.041 8.041 0 0 0 -.381.924l-.353.141a1.676 1.676 0 0 0 -1.036 1.386 11.46 11.46 0 0 0 0 2.129 1.679 1.679 0 0 0 1.044 1.39l.345.138a8.041 8.041 0 0 0 .381.924l-.148.346a1.675 1.675 0 0 0 .247 1.714 11.526 11.526 0 0 0 1.507 1.507 1.675 1.675 0 0 0 1.719.244l.34-.146a8.192 8.192 0 0 0 .924.381l.14.351a1.677 1.677 0 0 0 1.387 1.038c.368.033.737.049 1.1.049a10.332 10.332 0 0 0 1.034-.049 1.678 1.678 0 0 0 1.39-1.044l.138-.345a8.192 8.192 0 0 0 .924-.381l.346.148a1.667 1.667 0 0 0 1.714-.247 11.526 11.526 0 0 0 1.507-1.507 1.679 1.679 0 0 0 .244-1.719l-.146-.34a8.041 8.041 0 0 0 .381-.924l.353-.141a1.676 1.676 0 0 0 1.036-1.386 11.46 11.46 0 0 0 0-2.137 1.676 1.676 0 0 0 -1.049-1.382zm-.931 3.127-.6.238a1 1 0 0 0 -.6.666 6.016 6.016 0 0 1 -.576 1.4 1 1 0 0 0 -.052.891l.255.593a9.587 9.587 0 0 1 -.952.949l-.591-.254a1 1 0 0 0 -.89.051 6 6 0 0 1 -1.4.577 1 1 0 0 0 -.666.6l-.239.6a9.438 9.438 0 0 1 -1.345 0l-.238-.6a1 1 0 0 0 -.666-.6 6 6 0 0 1 -1.4-.577 1 1 0 0 0 -.89-.051l-.593.255a9.587 9.587 0 0 1 -.949-.952l.254-.591a1 1 0 0 0 -.052-.891 6.016 6.016 0 0 1 -.576-1.4 1 1 0 0 0 -.595-.666l-.6-.239a9.588 9.588 0 0 1 0-1.345l.6-.238a1 1 0 0 0 .595-.666 6.016 6.016 0 0 1 .576-1.4 1 1 0 0 0 .052-.891l-.255-.593a9.587 9.587 0 0 1 .952-.949l.591.254a1 1 0 0 0 .89-.051 6 6 0 0 1 1.4-.577 1 1 0 0 0 .666-.595l.239-.6a9.438 9.438 0 0 1 1.345 0l.238.6a1 1 0 0 0 .666.595 6 6 0 0 1 1.4.577 1 1 0 0 0 .89.051l.593-.255a9.587 9.587 0 0 1 .949.952l-.254.591a1 1 0 0 0 .052.891 6.016 6.016 0 0 1 .576 1.4 1 1 0 0 0 .6.666l.6.239a9.588 9.588 0 0 1 0 1.345z"/><path d="m12 12a2.1 2.1 0 0 0 1.3 1.842 2.069 2.069 0 0 0 2.272-.473l2.82-2.88a2.144 2.144 0 0 0 0-2.978l-2.82-2.883a2.07 2.07 0 0 0 -2.269-.47 2.1 2.1 0 0 0 -1.303 1.842 8.009 8.009 0 0 0 -8 8v12a1 1 0 0 1 -1 1h-1a2 2 0 0 0 -2 2v2a2 2 0 0 0 2 2h1a1 1 0 0 1 1 1v12a8.009 8.009 0 0 0 8 8 2.1 2.1 0 0 0 1.3 1.842 2.072 2.072 0 0 0 2.272-.473l2.82-2.88a2.144 2.144 0 0 0 0-2.978l-2.823-2.883a2.07 2.07 0 0 0 -2.269-.47 2.1 2.1 0 0 0 -1.3 1.842 2 2 0 0 1 -2-2v-12a1 1 0 0 1 1-1h1a2.1 2.1 0 0 0 1.3 1.842 2.071 2.071 0 0 0 2.272-.473l2.82-2.88a2.144 2.144 0 0 0 0-2.978l-2.823-2.883a2.072 2.072 0 0 0 -2.269-.47 2.1 2.1 0 0 0 -1.3 1.842h-1a1 1 0 0 1 -1-1v-12a2 2 0 0 1 2-2zm-1 17h2a1 1 0 0 0 1-1v-.88c0-.043.007-.09.146-.091l2.819 2.88a.129.129 0 0 1 0 .182l-2.9 2.9a.1.1 0 0 1 -.065-.111v-.88a1 1 0 0 0 -1-1h-2a3 3 0 0 0 -3 3v12a4 4 0 0 0 4 4h1a1 1 0 0 0 1-1v-.88c0-.043.007-.09.146-.091l2.819 2.88a.129.129 0 0 1 0 .182l-2.9 2.9a.1.1 0 0 1 -.065-.111v-.88a1 1 0 0 0 -1-1h-1a6.006 6.006 0 0 1 -6-6v-12a3 3 0 0 0 -3-3h-1v-2h1a3 3 0 0 0 3-3v-12a6.006 6.006 0 0 1 6-6h1a1 1 0 0 0 1-1v-.88c0-.043.007-.09.146-.091l2.819 2.88a.129.129 0 0 1 0 .182l-2.9 2.9a.1.1 0 0 1 -.065-.111v-.88a1 1 0 0 0 -1-1h-1a4 4 0 0 0 -4 4v12a3 3 0 0 0 3 3z"/><path d="m56.571 4.627a2.07 2.07 0 0 0 -2.268-.47 2.1 2.1 0 0 0 -1.303 1.843h-4a1 1 0 0 0 0 2h5a1 1 0 0 0 1-1v-.881c0-.043.007-.09.145-.091l2.819 2.882a.131.131 0 0 1 0 .181l-2.9 2.9a.1.1 0 0 1 -.064-.11v-.881c0-1-.415-1-2.719-1h-9.281v-2h2a1 1 0 0 0 0-2h-2a2 2 0 0 0 -2 2v2a2 2 0 0 0 2 2h10a2.1 2.1 0 0 0 1.3 1.842 2.063 2.063 0 0 0 .784.155 2.087 2.087 0 0 0 1.487-.628l2.818-2.88a2.14 2.14 0 0 0 0-2.979z"/><path d="m56.571 25.627a2.072 2.072 0 0 0 -2.268-.47 2.1 2.1 0 0 0 -1.303 1.843h-10a2 2 0 0 0 -2 2v2a2 2 0 0 0 2 2h10a2.1 2.1 0 0 0 1.3 1.842 2.063 2.063 0 0 0 .784.155 2.087 2.087 0 0 0 1.487-.628l2.818-2.88a2.14 2.14 0 0 0 0-2.979zm1.392 4.464-2.9 2.9a.1.1 0 0 1 -.063-.11v-.881c0-1-.415-1-2.719-1h-9.281v-2h11a1 1 0 0 0 1-1v-.881c0-.043.007-.09.145-.091l2.819 2.882a.131.131 0 0 1 -.001.181z"/><path d="m56.571 46.627a2.07 2.07 0 0 0 -2.268-.47 2.1 2.1 0 0 0 -1.303 1.843h-10a2 2 0 0 0 -2 2v2a2 2 0 0 0 2 2h10a2.1 2.1 0 0 0 1.3 1.842 2.063 2.063 0 0 0 .784.155 2.087 2.087 0 0 0 1.487-.628l2.818-2.88a2.14 2.14 0 0 0 0-2.979zm1.392 4.464-2.9 2.9a.1.1 0 0 1 -.063-.11v-.881c0-1-.415-1-2.719-1h-9.281v-2h11a1 1 0 0 0 1-1v-.881c0-.043.007-.09.145-.091l2.819 2.882a.131.131 0 0 1 -.001.181z"/></g></svg>