<svg id="object" height="512" viewBox="0 0 100 100" width="512" xmlns="http://www.w3.org/2000/svg"><g id="_6" fill="#03c4a1"><path d="m91.67 65.256v9.287c0 1.762-1.418 3.18-3.17 3.18h-76.95c-1.752 0-3.17-1.418-3.17-3.18v-9.287z"/><path d="m83.356 33.961v4.537c0 1.337-1.084 2.421-2.42 2.421h-16.326c-1.337 0-2.421-1.084-2.421-2.421v-4.537z"/></g><g id="_4-2"><path d="m14.891 29.376c0-.559.453-1.013 1.013-1.013h7.052c.559 0 1.013.453 1.013 1.013s-.453 1.013-1.013 1.013h-7.052c-.559 0-1.013-.453-1.013-1.013zm-2.09 1.013c.559 0 1.013-.453 1.013-1.013s-.453-1.013-1.013-1.013-1.013.453-1.013 1.013.453 1.013 1.013 1.013zm3.103 4.752h7.052c.559 0 1.013-.453 1.013-1.013s-.453-1.013-1.013-1.013h-7.052c-.559 0-1.013.453-1.013 1.013s.453 1.013 1.013 1.013zm-3.103 0c.559 0 1.013-.453 1.013-1.013s-.453-1.013-1.013-1.013-1.013.453-1.013 1.013.453 1.013 1.013 1.013zm3.103 4.752h7.052c.559 0 1.013-.453 1.013-1.013s-.453-1.013-1.013-1.013h-7.052c-.559 0-1.013.453-1.013 1.013s.453 1.013 1.013 1.013zm-3.103 0c.559 0 1.013-.453 1.013-1.013s-.453-1.013-1.013-1.013-1.013.453-1.013 1.013.453 1.013 1.013 1.013zm56.298-27.465h7.052c.559 0 1.013-.453 1.013-1.013s-.453-1.013-1.013-1.013h-7.052c-.559 0-1.013.453-1.013 1.013s.453 1.013 1.013 1.013zm-3.103 0c.559 0 1.013-.453 1.013-1.013s-.453-1.013-1.013-1.013-1.013.453-1.013 1.013.453 1.013 1.013 1.013zm3.103 4.752h7.052c.559 0 1.013-.453 1.013-1.013s-.453-1.013-1.013-1.013h-7.052c-.559 0-1.013.453-1.013 1.013s.453 1.013 1.013 1.013zm-3.103 0c.559 0 1.013-.453 1.013-1.013s-.453-1.013-1.013-1.013-1.013.453-1.013 1.013.453 1.013 1.013 1.013zm3.103 4.752h7.052c.559 0 1.013-.453 1.013-1.013s-.453-1.013-1.013-1.013h-7.052c-.559 0-1.013.453-1.013 1.013s.453 1.013 1.013 1.013zm-3.103 0c.559 0 1.013-.453 1.013-1.013s-.453-1.013-1.013-1.013-1.013.453-1.013 1.013.453 1.013 1.013 1.013zm26.65 3.577v49.201c0 2.305-1.871 4.18-4.17 4.18h-33.622v4.726h2.931c3.135 0 5.686 2.551 5.686 5.686s-2.551 5.686-5.686 5.686h-15.57c-3.135 0-5.686-2.551-5.686-5.686s2.551-5.686 5.686-5.686h2.931v-4.726h-33.622c-2.299 0-4.17-1.875-4.17-4.18v-49.201c0-2.299 1.871-4.17 4.17-4.17h49.639v-12.906c0-1.886 1.534-3.42 3.421-3.42h16.326c1.886 0 3.42 1.534 3.42 3.42v12.906h4.146c2.299 0 4.17 1.871 4.17 4.17zm-29.482 13.156c0 .784.638 1.421 1.421 1.421h16.326c.783 0 1.42-.637 1.42-1.421v-3.537h-19.167zm0-5.537h19.167v-24.695c0-.783-.637-1.42-1.42-1.42h-16.326c-.783 0-1.421.637-1.421 1.42v24.694zm-53.81-7.619v38.914h81.292v-38.914c0-1.196-.974-2.17-2.17-2.17h-4.146v15.326c0 1.886-1.534 3.421-3.42 3.421h-16.326c-1.887 0-3.421-1.535-3.421-3.421v-15.326h-49.639c-1.196 0-2.17.974-2.17 2.17zm48.431 60.106h-15.57c-2.032 0-3.686 1.653-3.686 3.686s1.653 3.686 3.686 3.686h15.57c2.032 0 3.686-1.653 3.686-3.686s-1.653-3.686-3.686-3.686zm-4.931-6.726h-5.709v4.726h5.709zm37.791-4.18v-8.287h-81.291v8.287c0 1.202.974 2.18 2.17 2.18h76.952c1.196 0 2.17-.978 2.17-2.18zm-71.768-3.054c0 1.885-1.533 3.419-3.418 3.419s-3.419-1.534-3.419-3.419 1.534-3.418 3.419-3.418 3.418 1.534 3.418 3.418zm-2 0c0-.782-.636-1.418-1.418-1.418s-1.419.636-1.419 1.418.637 1.419 1.419 1.419 1.418-.637 1.418-1.419zm12.791-1h-8.012c-.553 0-1 .448-1 1s.447 1 1 1h8.012c.553 0 1-.448 1-1s-.447-1-1-1zm40.808-32.049h4.541c.553 0 1-.448 1-1s-.447-1-1-1h-4.541c-.553 0-1 .448-1 1s.447 1 1 1zm-41.168 22.428c.195.195.451.293.707.293s.512-.098.707-.293l3.903-3.903c.391-.39.391-1.023 0-1.414s-1.023-.391-1.414 0l-2.196 2.196v-22.623c0-2.029 1.651-3.68 3.681-3.68h10.624c.553 0 1-.448 1-1s-.447-1-1-1h-10.624c-3.133 0-5.681 2.548-5.681 5.68v22.623l-2.196-2.196c-.391-.391-1.023-.391-1.414 0s-.391 1.024 0 1.414zm19.799-25.814 2.196-2.196v22.623c0 2.029-1.65 3.68-3.68 3.68h-10.625c-.553 0-1 .448-1 1s.447 1 1 1h10.625c3.132 0 5.68-2.548 5.68-5.68v-22.623l2.196 2.196c.195.195.451.293.707.293s.512-.098.707-.293c.391-.391.391-1.023 0-1.414l-3.903-3.903c-.391-.391-1.023-.391-1.414 0l-3.903 3.903c-.391.391-.391 1.023 0 1.414s1.023.391 1.414 0z"/></g></svg>